<svg xmlns="http://www.w3.org/2000/svg" viewBox="0 0 750 500"><g id="freepik--background-complete--inject-9"><polygon points="603.77 361.88 603.77 393.08 649.39 393.08 699.71 393.08 699.71 361.88 603.77 361.88" style="fill:#f5f5f5"></polygon><polygon points="599.75 353.16 599.75 361.88 703.06 361.88 703.06 353.16 649.39 353.16 599.75 353.16" style="fill:#e0e0e0"></polygon><polygon points="651.4 393.08 699.71 393.08 699.71 361.88 703.06 361.88 703.06 353.16 649.39 353.16 649.39 361.07 651.4 393.08" style="fill:#e0e0e0"></polygon><rect x="617.19" y="366.91" width="19.45" height="4.7" style="fill:#e0e0e0"></rect><rect x="614.69" y="377.48" width="24.98" height="9.92" style="fill:#fff"></rect><path d="M714.12,460.13l-2-427.24h-8.27V117H682.46l-.4-84.14h-8.27V117h-73.5l-.4-84.14h-8.27V117H570.31l-.39-84.14h-8.27V460.13h10.28l-.27-57.33h20v57.33h10.29l-.27-57.33h72.15v57.33h10.29l-.27-57.33h20v57.33Zm-133-113.95-7.39-31.67h15.17Zm10.52-29.73v74.81l-9-38.37Zm0-108.73-9-38.37,9-36.44Zm-1.6,6.87H571.55L581,176Zm-8.92-52-8.47-36.27H590Zm-1.64,6.69-8.73,35.51-.35-74.4Zm-8.2,148.44,8.2,35.1-7.88,32.06ZM581,359.59l7.91,33.87H572.7Zm-9.49-54.41-.07-.29-.26.06-.38-81h20.8v81.26Zm29.26-81.26h73v81.26H601.18ZM692.65,176l9,38.55H683.18Zm-9.78,26.74-.33-70.09,8.55,36.64Zm21,7.41-9.53-40.84,9.53-38.79Zm0,4.26v.14h-.58Zm0,104.22v70.25l-8.41-36Zm-10,27.51-7.4-31.67h15.18Zm-1.13-183.54-8.47-36.27h17.38Zm11.1,61.28v81.26H684.29l-.07-.29-.87.2L683,223.92Zm-11.62,129-8.47,34.48-.34-72.24Zm1.57,6.72,7.9,33.87H685.45Zm-20-233.22v88.22h-73l-.42-88.22ZM602.91,393.46h-1.32l-.37-78.95h72.57v78.95Z" style="fill:#e0e0e0"></path><rect x="653.72" y="151.27" width="13.66" height="63.68" style="fill:#e0e0e0"></rect><path d="M663.54,199.68a2.71,2.71,0,1,1-2.71-2.71A2.7,2.7,0,0,1,663.54,199.68Z" style="fill:#fafafa"></path><rect x="658.62" y="168.14" width="4.18" height="26.03" style="fill:#fafafa"></rect><rect x="639.84" y="151.27" width="13.66" height="63.68" style="fill:#ebebeb"></rect><path d="M649.66,199.68A2.71,2.71,0,1,1,647,197,2.71,2.71,0,0,1,649.66,199.68Z" style="fill:#fafafa"></path><rect x="644.74" y="168.14" width="4.18" height="26.03" style="fill:#fafafa"></rect><rect x="626.63" y="151.27" width="13.66" height="63.68" style="fill:#f5f5f5"></rect><path d="M636.44,199.68a2.71,2.71,0,1,1-2.71-2.71A2.7,2.7,0,0,1,636.44,199.68Z" style="fill:#e0e0e0"></path><rect x="631.53" y="168.14" width="4.18" height="26.03" style="fill:#e0e0e0"></rect><polygon points="609.73 213.99 626.15 157.96 620.49 155.48 603.65 211.96 609.73 213.99" style="fill:#f5f5f5"></polygon><polygon points="585.4 305.18 585.4 295.54 653.51 295.54 653.72 305.18 585.4 305.18" style="fill:#f5f5f5"></polygon><path d="M653.54,297.11s-60.4.44-64.31,1.37c-.84.19-1.7,3.9,0,4.24s64.31.85,64.31.85Z" style="fill:#fff"></path><polygon points="593.32 295.15 593.32 285.51 647.26 285.51 647.44 295.15 593.32 295.15" style="fill:#ebebeb"></polygon><path d="M647.29,287.09s-47.85.44-50.94,1.36c-.67.2-1.35,3.91,0,4.25s50.94.85,50.94.85Z" style="fill:#fafafa"></path><polygon points="593.07 285.63 593.07 275.99 647.02 275.99 647.19 285.63 593.07 285.63" style="fill:#e0e0e0"></polygon><path d="M647.05,277.56s-47.85.44-50.94,1.37c-.67.19-1.35,3.9,0,4.24s50.94.85,50.94.85Z" style="fill:#fafafa"></path><rect x="659.85" y="54.58" width="13.67" height="63.68" style="fill:#f5f5f5"></rect><path d="M669.67,103a2.71,2.71,0,1,1-2.71-2.71A2.7,2.7,0,0,1,669.67,103Z" style="fill:#e0e0e0"></path><rect x="664.76" y="71.45" width="4.18" height="26.03" style="fill:#e0e0e0"></rect><rect x="645.98" y="54.58" width="13.66" height="63.68" style="fill:#ebebeb"></rect><path d="M655.79,103a2.71,2.71,0,1,1-2.71-2.71A2.7,2.7,0,0,1,655.79,103Z" style="fill:#fafafa"></path><rect x="650.88" y="71.45" width="4.18" height="26.03" style="fill:#fafafa"></rect><rect x="632.76" y="54.58" width="13.66" height="63.68" style="fill:#e0e0e0"></rect><path d="M642.57,103a2.71,2.71,0,1,1-2.71-2.71A2.7,2.7,0,0,1,642.57,103Z" style="fill:#fafafa"></path><rect x="637.66" y="71.45" width="4.18" height="26.03" style="fill:#fafafa"></rect><path d="M445.68,418.2v23.47h-3.92v2.54h3.92v15.71h73.23V445.63h-5.42v-3.12h5.42v-4.66h2.41v-2.13h-2.86V418.2Z" style="fill:#f5f5f5"></path><polygon points="499.46 418.27 499.46 459.66 518.91 459.66 518.91 445.37 513.49 445.37 513.49 442.51 518.91 442.61 518.91 437.94 521.37 437.94 521.33 435.53 518.46 435.46 518.46 418.2 499.46 418.27" style="fill:#e0e0e0"></polygon><path d="M500.85,443.88c0,.14-13.25.26-29.6.26s-29.59-.12-29.59-.26,13.24-.26,29.59-.26S500.85,443.73,500.85,443.88Z" style="fill:#e0e0e0"></path><path d="M500.85,441.49c0,.15-13.25.26-29.6.26s-29.59-.11-29.59-.26,13.24-.26,29.59-.26S500.85,441.35,500.85,441.49Z" style="fill:#e0e0e0"></path><path d="M504.65,435.08c0,.14-13.25.26-29.59.26s-29.6-.12-29.6-.26,13.25-.26,29.6-.26S504.65,434.93,504.65,435.08Z" style="fill:#e0e0e0"></path><path d="M505,452.56c0,.14-13.25.26-29.6.26s-29.6-.12-29.6-.26,13.25-.26,29.6-.26S505,452.42,505,452.56Z" style="fill:#e0e0e0"></path><path d="M245.56,451c-1.54-1.32-5-5.5-2.33-10.37,1-1.79,3-2.67,4.9-3.45a19.93,19.93,0,0,0,5.38-2.79c2.91-2.48,3.72-6.59,5.65-9.9,2.22-3.8,6.36-6.64,10.74-6.44,5,.23,9.2,4.32,11.09,9s2,9.85,2,14.89c0,2.79-.1,5.94-2.15,7.82-1.88,1.73-4.72,1.76-7.28,1.68l-27.4-.84" style="fill:#f5f5f5"></path><path d="M298,375.65h-72l13,77.39a8.64,8.64,0,0,0,6.15,6.89l.25.07c.22.06.42.13.64.17a10.17,10.17,0,0,0,1.47.17v.07l.35-.06h32.12a9.29,9.29,0,0,0,1.76-.17,8.67,8.67,0,0,0,7.29-7.57l6.26-53.32.28-2.12h0l2.48-21.12ZM284.37,425H277l.74-22.46h8.57ZM287,402.55h7.08L291.45,425h-6.36Zm-21.13,47.37-.45-19.52h10.65l-.65,19.52ZM254.37,430.4h10.35l.45,19.52h-9.28Zm.8,19.52h-8.68c-.82-5.27-1.89-12.12-3.05-19.52h10.21ZM254,425l-1.74-22.46h11.87l.51,22.46Zm11.36,0-.52-22.46H277L276.26,425Zm-.64-27.84-.48-20.81h13.69l-.69,20.81Zm-.72,0H251.79l-1.62-20.81h13.3Zm-12.88,0H238.2l-1.28-8c-1.34-8.41-1.85-11.58-2.13-12.77h14.66Zm.42,5.38L253.23,425H242.59c-.36-2.27-.72-4.58-1.08-6.89-.84-5.3-1.67-10.6-2.46-15.57ZM241.87,425h-7l-3.76-22.46h7.18C239.43,409.49,240.64,417.22,241.87,425Zm.84,5.39c1.06,6.75,2.11,13.41,3.06,19.52h-6.68l-3.27-19.52Zm33.44,19.52.65-19.52h7.11l-1.67,19.52Zm1.75-52.75.69-20.81h9.94l-1.78,20.81Zm-43.79-20.81c.29,1.51,1.6,9.69,3.36,20.81h-7.23l-3.49-20.81Zm54.42,73.56H283l1.67-19.52h6.19Zm6.19-52.75h-7.25l1.78-20.81h7.91Z" style="fill:#e0e0e0"></path><rect x="41.97" y="105.44" width="35.62" height="70.6" style="fill:#ebebeb"></rect><rect x="78.95" y="105.44" width="38.48" height="70.6" style="fill:#ebebeb"></rect><rect x="78.95" y="180.97" width="38.48" height="68.21" style="fill:#ebebeb"></rect><polygon points="122.37 104.22 162.9 104.22 162.9 41.59 164.27 41.59 164.27 104.22 197.25 104.22 197.25 40.2 122.37 40.2 122.37 104.22" style="fill:#ebebeb"></polygon><rect x="164.27" y="105.44" width="32.98" height="70.6" style="fill:#ebebeb"></rect><rect x="164.27" y="180.97" width="32.98" height="68.21" style="fill:#ebebeb"></rect><rect x="41.97" y="180.97" width="35.62" height="68.21" style="fill:#ebebeb"></rect><rect x="122.37" y="180.97" width="40.53" height="68.21" style="fill:#ebebeb"></rect><rect x="41.97" y="250.41" width="35.62" height="61.47" style="fill:#ebebeb"></rect><rect x="164.27" y="250.41" width="32.98" height="61.47" style="fill:#ebebeb"></rect><polygon points="77.58 104.22 77.58 41.59 78.95 41.59 78.95 104.22 117.44 104.22 117.44 40.2 41.97 40.2 41.97 104.22 77.58 104.22" style="fill:#ebebeb"></polygon><rect x="122.37" y="250.41" width="40.53" height="61.47" style="fill:#ebebeb"></rect><rect x="78.95" y="250.41" width="38.48" height="61.47" style="fill:#ebebeb"></rect><rect x="122.37" y="105.44" width="40.53" height="70.6" style="fill:#ebebeb"></rect><path d="M99.42,388.67a20.33,20.33,0,0,1,12.65-1.54c2.29.38,4.68,1.07,6.25,2.79s1.85,4.75.06,6.23a5.91,5.91,0,0,1-3.94,1c-3.34,0-7-.62-9.72,1.39-1.52,1.14-2.54,3-4.36,3.62a4.32,4.32,0,0,1-4.74-2.11,7.38,7.38,0,0,1-.53-5.43A8.29,8.29,0,0,1,99.42,388.67Z" style="fill:#ebebeb"></path><path d="M90.61,371.66c2.36,3.36,6.93,2.24,9,.19s3-5,3.83-7.85c1.86-6.48,3.74-13.27,2.35-19.86a11,11,0,0,0-2.53-5.4,5.8,5.8,0,0,0-5.47-1.82c-2.3.61-3.73,2.87-4.77,5a47.44,47.44,0,0,0-4.68,20.31c0,3.27.38,6.71,2.22,9.41" style="fill:#ebebeb"></path><path d="M84.16,376.48c2.55-3,3-7.45,1.9-11.25a21.71,21.71,0,0,0-6.66-9.66,35.92,35.92,0,0,0-11.93-7,12.6,12.6,0,0,0-5.37-.91,5.61,5.61,0,0,0-4.5,2.72c-1.25,2.4-.05,5.3,1.25,7.67a90.51,90.51,0,0,0,7.84,11.93c2.34,3,5,6,8.61,7.38s7.3,1.21,9.2-1.27" style="fill:#ebebeb"></path><path d="M90.45,422.32a6.57,6.57,0,0,0,.22-1.52c.11-1.11.24-2.51.4-4.17a61.13,61.13,0,0,1,.94-6.11,46.27,46.27,0,0,1,2.22-7.21,26.64,26.64,0,0,1,3.68-6.52,13.62,13.62,0,0,1,4.66-3.87,13,13,0,0,1,3.92-1.22,7.69,7.69,0,0,0,1.52-.22,6.9,6.9,0,0,0-1.55,0,11.93,11.93,0,0,0-4.09,1.07,13.82,13.82,0,0,0-4.91,3.9,25.83,25.83,0,0,0-3.81,6.66,42.84,42.84,0,0,0-2.21,7.33,52.2,52.2,0,0,0-.81,6.18c-.13,1.77-.18,3.2-.21,4.19A7.69,7.69,0,0,0,90.45,422.32Z" style="fill:#e0e0e0"></path><path d="M90.74,419.12a2.83,2.83,0,0,0,0-.71v-2c0-1.76,0-4.31.09-7.45.15-6.28.69-13,1.74-22.57,1-9,2.32-19.39,3.72-26.17.3-1.54.6-2.93.88-4.15s.51-2.26.73-3.11.35-1.45.47-2a2.75,2.75,0,0,0,.13-.7,2.68,2.68,0,0,0-.25.66c-.15.51-.35,1.16-.59,1.94s-.52,1.89-.83,3.1-.65,2.6-1,4.14A230.07,230.07,0,0,0,92,384.39c-1,9.55-1.52,18.25-1.56,24.55,0,3.14,0,5.69.11,7.45,0,.82.09,1.49.13,2A3,3,0,0,0,90.74,419.12Z" style="fill:#e0e0e0"></path><path d="M90.78,402.35a12.33,12.33,0,0,0,0-2.12c-.08-1.36-.27-3.32-.65-5.73a76.81,76.81,0,0,0-1.86-8.35,69,69,0,0,0-3.5-9.88,52.61,52.61,0,0,0-10.25-16,26.38,26.38,0,0,0-2.41-2.24c-.37-.32-.7-.63-1-.87l-.94-.65a13.65,13.65,0,0,0-1.78-1.14,63.65,63.65,0,0,1,5.84,5.21,55.7,55.7,0,0,1,10,15.91,77.61,77.61,0,0,1,3.51,9.79c.91,3.07,1.52,5.89,2,8.27s.69,4.32.84,5.67A15,15,0,0,0,90.78,402.35Z" style="fill:#e0e0e0"></path><polygon points="74.57 431.93 76.25 454.96 105.83 454.96 107.51 431.93 74.57 431.93" style="fill:#e0e0e0"></polygon><rect x="71.72" y="422.86" width="39.33" height="9.08" style="fill:#e0e0e0"></rect><polygon points="71.72 454.08 71.72 456.59 73.56 456.59 110.39 456.59 110.39 454.08 71.72 454.08" style="fill:#ebebeb"></polygon><polygon points="75.37 461.02 73.56 456.59 108.98 456.59 106.87 461.02 75.37 461.02" style="fill:#e0e0e0"></polygon><path d="M107,439.46a.93.93,0,0,1-.13.21l-.45.59-1.72,2.2-.08.1-.07-.1-4.23-5.86h.24l-4.17,5.9-.13.19-.14-.18-5-5.88h.29l-.27.34c-1.54,1.92-3,3.78-4.42,5.54l-.15.19-.14-.2-4.17-5.9.24,0-5.13,5.85-.09.1-.07-.12c-.68-1.13-1.22-2-1.61-2.7L75.2,439a1.34,1.34,0,0,1-.13-.25s.07.07.17.23l.46.69,1.69,2.65h-.16c1.31-1.55,3-3.56,5-5.93l.13-.15.11.17,4.21,5.87h-.28l4.41-5.55.27-.34.14-.18.14.18,4.93,5.89h-.27c1.52-2.12,2.93-4.1,4.21-5.87l.12-.17.12.17,4.14,5.92h-.15l1.8-2.15.48-.55C106.9,439.51,107,439.45,107,439.46Z" style="fill:#f5f5f5"></path><path d="M107.92,431.78c0,.1-7.41.19-16.55.19s-16.55-.09-16.55-.19,7.41-.18,16.55-.18S107.92,431.68,107.92,431.78Z" style="fill:#f5f5f5"></path><path d="M109.42,456.84c0,.1-8.06.19-18,.19s-18-.09-18-.19,8-.18,18-.18S109.42,456.74,109.42,456.84Z" style="fill:#f5f5f5"></path></g><g id="freepik--Plant--inject-9"><path d="M600,375.25c-.09.11-.83-.34-1.65-1s-1.42-1.29-1.33-1.4.83.33,1.65,1S600.12,375.14,600,375.25Z" style="fill:#263238"></path><path d="M622.53,341.63c.13-3.14.22-6.36-.77-9.35s-3.29-5.72-6.37-6.36c-3.52-.73-7.12,1.49-9.08,4.49s-2.65,6.64-3.23,10.18a359.44,359.44,0,0,0-4.41,73.92l14.38,2C619.36,390.72,621.38,368.17,622.53,341.63Z" style="fill:#455a64"></path><path d="M613.39,325.81a.7.7,0,0,1-.06.23c-.07.17-.14.39-.24.65-.23.61-.55,1.44-1,2.48-.2.54-.47,1.13-.68,1.8s-.45,1.4-.7,2.18-.52,1.61-.8,2.5-.49,1.85-.75,2.85a125.5,125.5,0,0,0-2.77,14.23c-.78,5.41-1.29,11.4-1.69,17.69-.74,12.6-.85,24-1.18,32.3-.15,4.14-.29,7.48-.45,9.79-.08,1.12-.14,2-.18,2.66,0,.28,0,.5-.06.69a.92.92,0,0,1,0,.24,1,1,0,0,1,0-.24v-.7c0-.65,0-1.54.08-2.66.1-2.31.18-5.66.29-9.79.23-8.27.29-19.7,1-32.32.41-6.31.93-12.31,1.74-17.73a119.38,119.38,0,0,1,2.89-14.25c.28-1,.54-2,.78-2.86s.58-1.71.85-2.49.51-1.5.74-2.17.51-1.25.73-1.79c.44-1,.79-1.85,1-2.45l.29-.63C613.35,325.87,613.38,325.8,613.39,325.81Z" style="fill:#263238"></path><path d="M614.72,325.82a10,10,0,0,1,1.76,3,22,22,0,0,1,1.31,9.3c-.38,8-1.09,18.9-2,31s-2,23-2.85,30.92c-.42,3.95-.79,7.15-1.06,9.35-.14,1.07-.25,1.91-.33,2.54,0,.26-.07.48-.1.66a.63.63,0,0,1,0,.22.68.68,0,0,1,0-.23c0-.18,0-.4,0-.66.06-.63.13-1.48.23-2.55.22-2.26.52-5.45.9-9.36.75-7.91,1.75-18.84,2.7-30.93s1.72-23,2.19-30.95a22.7,22.7,0,0,0-1.13-9.22A18.34,18.34,0,0,0,614.72,325.82Z" style="fill:#263238"></path><path d="M624.69,363a15.8,15.8,0,0,1-5.27-1.89,15.24,15.24,0,0,1,5.27,1.89Z" style="fill:#263238"></path><path d="M626.43,348.38a9.34,9.34,0,0,1-2.6,1.44,8.84,8.84,0,0,1-2.8,1,17,17,0,0,1,5.4-2.41Z" style="fill:#263238"></path><path d="M625.53,336.41a4.4,4.4,0,0,1-2.15.11,4.63,4.63,0,0,1-2.1-.4,9,9,0,0,1,4.25.29Z" style="fill:#263238"></path><path d="M610.69,328.75c-.12.08-.75-.71-1.41-1.75s-1.09-1.95-1-2,.75.71,1.41,1.76A5.18,5.18,0,0,1,610.69,328.75Z" style="fill:#263238"></path><path d="M605.79,336a4.35,4.35,0,0,1-2,.22,4.4,4.4,0,0,1-2-.3c0-.15.92-.24,2-.22A4.4,4.4,0,0,1,605.79,336Z" style="fill:#263238"></path><path d="M602.27,350.45c-.06.14-1-.13-2.15-.59s-2-.93-2-1.06a5,5,0,0,1,2.15.59C601.44,349.85,602.32,350.32,602.27,350.45Z" style="fill:#263238"></path><path d="M601.89,362.62c0,.14-.79.43-1.83.65s-1.91.28-1.93.14.79-.43,1.83-.64S601.86,362.48,601.89,362.62Z" style="fill:#263238"></path><path d="M600.23,382.53c0,.14-.84.41-1.94.61s-2,.24-2,.1.84-.41,1.94-.61S600.21,382.39,600.23,382.53Z" style="fill:#263238"></path><path d="M599.13,393.52c.07.12-.66.64-1.62,1.15s-1.79.81-1.86.69.66-.64,1.62-1.15S599.07,393.39,599.13,393.52Z" style="fill:#263238"></path><path d="M608.11,406c-.13.07-.76-.8-1.42-1.95a5.86,5.86,0,0,1-1-2.2c.12-.07.75.8,1.41,2A5.79,5.79,0,0,1,608.11,406Z" style="fill:#263238"></path><path d="M610.7,385.26c.09.11-.61,1-1.58,1.9s-1.83,1.64-1.93,1.54.61-.95,1.57-1.9S610.6,385.16,610.7,385.26Z" style="fill:#263238"></path><path d="M610.12,374.39c-.1.1-.75-.44-1.46-1.2s-1.18-1.45-1.08-1.54.76.44,1.46,1.19S610.23,374.29,610.12,374.39Z" style="fill:#263238"></path><path d="M611.9,360.49c.11.1-.48.93-1.31,1.85s-1.59,1.6-1.69,1.51.48-.93,1.31-1.85S611.8,360.4,611.9,360.49Z" style="fill:#263238"></path><path d="M612.9,350.41c-.1.1-.91-.54-1.82-1.44s-1.57-1.7-1.47-1.8.92.54,1.83,1.44S613,350.31,612.9,350.41Z" style="fill:#263238"></path><path d="M614.87,336.78a5.11,5.11,0,0,1-.92,2c-.62,1.05-1.23,1.85-1.35,1.78s.28-1,.91-2S614.75,336.71,614.87,336.78Z" style="fill:#263238"></path><path d="M618.58,324.15a4.94,4.94,0,0,1-.82,2c-.57,1.06-1.14,1.86-1.26,1.8a5,5,0,0,1,.81-2.05C617.89,324.88,618.45,324.08,618.58,324.15Z" style="fill:#263238"></path><path d="M622.78,329.88c.06.13-.52.53-1.29.9s-1.44.57-1.5.44.51-.53,1.28-.9S622.72,329.76,622.78,329.88Z" style="fill:#263238"></path><path d="M622.88,375.25a5.92,5.92,0,0,1-2.81-.68,5.79,5.79,0,0,1-2.44-1.56,14.66,14.66,0,0,1,2.64,1.09A14.39,14.39,0,0,1,622.88,375.25Z" style="fill:#263238"></path><path d="M621.16,384.86c0,.14-.84.42-1.93.63s-2,.27-2,.13.83-.42,1.93-.63A4.19,4.19,0,0,1,621.16,384.86Z" style="fill:#263238"></path><path d="M619.05,401.34a5.71,5.71,0,0,1-2.19-1.93,5.6,5.6,0,0,1-1.37-2.57,17.53,17.53,0,0,1,1.77,2.25A15.86,15.86,0,0,1,619.05,401.34Z" style="fill:#263238"></path><path d="M595.94,408.87c-.09-.11.49-.76,1.3-1.45s1.55-1.17,1.64-1.07-.49.76-1.3,1.46S596,409,595.94,408.87Z" style="fill:#263238"></path><path d="M589.29,372.91c-.93-2.92-2.69-6.33-5.76-6.37a5.1,5.1,0,0,0-4.31,2.88,10.68,10.68,0,0,0-1.17,5.29,137.76,137.76,0,0,0,6.6,38.3h11.22A133,133,0,0,0,589.29,372.91Z" style="fill:#455a64"></path><path d="M569,354.52c-1.57-6.28-6.25-9.67-11.69-10-5,.87-6.88,5.76-7.47,10.76s1,10,2.49,14.79q7.39,23.1,14.78,46.22l14-1.53C576.65,394.13,574.11,375,569,354.52Z" style="fill:#455a64"></path><path d="M583.53,366.54a11.8,11.8,0,0,0-.95,1.59,10.48,10.48,0,0,0-.52,5c.21,2.13.46,4.7.82,7.52s.87,5.91,1.5,9.13c1.27,6.45,2.7,12.24,3.61,16.46.46,2.11.81,3.82,1,5,.1.54.18,1,.24,1.37a2.15,2.15,0,0,1,0,.48,1.7,1.7,0,0,1-.15-.46l-.33-1.35-1.19-5c-1-4.19-2.48-10-3.75-16.44-.64-3.23-1.13-6.33-1.47-9.17-.18-1.42-.3-2.77-.42-4s-.24-2.43-.3-3.52a10.24,10.24,0,0,1,.71-5.07A4.54,4.54,0,0,1,583.53,366.54Z" style="fill:#263238"></path><path d="M557.5,344.14a18.1,18.1,0,0,0-1.68,2.26,16,16,0,0,0-2.13,7.31A33.85,33.85,0,0,0,555.42,365c1.23,4.15,2.57,8.71,4,13.5L566.55,403c.88,3.12,1.6,5.65,2.11,7.47l.55,2a3.94,3.94,0,0,1,.16.72,3.12,3.12,0,0,1-.26-.69l-.64-2c-.55-1.8-1.32-4.32-2.27-7.41l-7.29-24.53c-1.4-4.8-2.73-9.36-3.95-13.52a33.49,33.49,0,0,1-1.63-11.4,15.59,15.59,0,0,1,2.32-7.39A8.64,8.64,0,0,1,557.5,344.14Z" style="fill:#263238"></path><path d="M578,413.28a4.58,4.58,0,0,1-.31-.67c-.19-.45-.48-1.1-.8-2-.66-1.72-1.52-4.25-2.4-7.42s-1.76-7-2.6-11.27-1.7-9-2.63-13.89-2.06-9.57-3.31-13.72a77,77,0,0,0-4.07-10.76,57.3,57.3,0,0,0-3.77-6.79c-.48-.78-.91-1.34-1.17-1.75a5.22,5.22,0,0,1-.4-.63,3.25,3.25,0,0,1,.48.57c.29.39.75.93,1.26,1.7a50.78,50.78,0,0,1,3.92,6.74,72.6,72.6,0,0,1,4.2,10.78A136.09,136.09,0,0,1,569.78,378c.92,4.93,1.79,9.62,2.59,13.9s1.65,8.09,2.49,11.26,1.63,5.71,2.24,7.45c.29.87.55,1.53.7,2A3.64,3.64,0,0,1,578,413.28Z" style="fill:#263238"></path><path d="M552.57,367.77c0,.14-.72.44-1.69.67s-1.79.32-1.82.18.73-.44,1.7-.67S552.54,367.63,552.57,367.77Z" style="fill:#263238"></path><path d="M551.09,358.24a17.48,17.48,0,0,1-4.72.18,4.83,4.83,0,0,1,2.35-.44A4.68,4.68,0,0,1,551.09,358.24Z" style="fill:#263238"></path><path d="M552.67,349.53c-.09.11-.85-.38-1.7-1.1s-1.45-1.38-1.36-1.49.85.38,1.7,1.1S552.76,349.42,552.67,349.53Z" style="fill:#263238"></path><path d="M556.93,341.47c.14,0,.1.71.08,1.53s0,1.5-.17,1.53-.37-.66-.34-1.54S556.79,341.44,556.93,341.47Z" style="fill:#263238"></path><path d="M565.64,345.27c.11.08-.23.77-.77,1.54s-1.06,1.32-1.18,1.24.22-.77.76-1.54S565.52,345.19,565.64,345.27Z" style="fill:#263238"></path><path d="M571.28,355.08c.06.14-.66.55-1.61.94s-1.76.59-1.81.46.67-.55,1.62-.94S571.23,355,571.28,355.08Z" style="fill:#263238"></path><path d="M574.71,365.18a6.39,6.39,0,0,1-4.63,1.05,49.5,49.5,0,0,1,4.63-1.05Z" style="fill:#263238"></path><path d="M559,362.31c-.14,0,0-.74.21-1.55s.58-1.45.71-1.41,0,.74-.22,1.56S559.11,362.36,559,362.31Z" style="fill:#263238"></path><path d="M561.17,375a4.85,4.85,0,0,1,.63-2.1c.48-1.1,1-1.95,1.11-1.89a4.88,4.88,0,0,1-.64,2.1C561.79,374.2,561.3,375.05,561.17,375Z" style="fill:#263238"></path><path d="M555.75,378.46c-.06.14-.94-.1-2-.44s-1.94-.64-1.91-.78,1-.05,2.06.29S555.8,378.34,555.75,378.46Z" style="fill:#263238"></path><path d="M558.87,388.8c.09.12-.51.69-1.33,1.27s-1.55,1-1.64.85.52-.68,1.34-1.27S558.79,388.69,558.87,388.8Z" style="fill:#263238"></path><path d="M561.38,399.11c0,.14-.71.43-1.65.66s-1.74.31-1.78.17.71-.43,1.66-.66S561.35,399,561.38,399.11Z" style="fill:#263238"></path><path d="M575,373.79c.07.12-.56.63-1.48,1s-1.73.39-1.76.25.7-.4,1.57-.73S574.92,373.67,575,373.79Z" style="fill:#263238"></path><path d="M576.93,389.83c-.06.13-.81-.1-1.68-.51s-1.53-.85-1.47-1,.82.09,1.69.5S577,389.7,576.93,389.83Z" style="fill:#263238"></path><path d="M580.37,401.3a5.32,5.32,0,0,1-2.23-.59c-1.18-.46-2.09-.95-2-1.08a5.43,5.43,0,0,1,2.22.6A5.37,5.37,0,0,1,580.37,401.3Z" style="fill:#263238"></path><path d="M561.93,410.29c-.07-.13.85-.74,1.91-1.58a10.24,10.24,0,0,1,2-1.48c.11.09-.56,1-1.67,1.88A4.63,4.63,0,0,1,561.93,410.29Z" style="fill:#263238"></path><path d="M571,404.46c-.14,0-.34-.76-.69-1.65s-.71-1.61-.6-1.69.71.53,1.08,1.5S571.14,404.45,571,404.46Z" style="fill:#263238"></path><path d="M568.6,390.66c-.08.11-.67-.17-1.31-.63s-1.09-.92-1-1,.67.17,1.31.63S568.68,390.54,568.6,390.66Z" style="fill:#263238"></path><path d="M589.75,369c.08.11-.49.68-1.28,1.26s-1.49,1-1.58.85.49-.68,1.28-1.26S589.66,368.92,589.75,369Z" style="fill:#263238"></path><path d="M592.93,377.74c0,.14-.88.33-2,.21s-1.94-.49-1.9-.62.9,0,2,.11S592.92,377.6,592.93,377.74Z" style="fill:#263238"></path><path d="M579.23,379.7c0,.13-.79.43-1.86.5s-1.93-.11-1.92-.25.86-.19,1.88-.26S579.2,379.56,579.23,379.7Z" style="fill:#263238"></path><path d="M580.41,371.46c0,.14-.85.16-1.76-.26s-1.45-1.07-1.35-1.17.73.32,1.56.7S580.43,371.31,580.41,371.46Z" style="fill:#263238"></path><path d="M594.11,387.1c-.08.12-.93-.28-1.91-.9s-1.72-1.22-1.64-1.34.93.29,1.91.9S594.19,387,594.11,387.1Z" style="fill:#263238"></path><rect x="554.45" y="411.55" width="73.09" height="12.96" style="fill:#00416A"></rect><polygon points="559.9 421.94 568.79 460.65 612.36 460.65 622.08 421.94 559.9 421.94" style="fill:#00416A"></polygon><path d="M627.5,424.52c0,.14-16.49.26-36.82.26s-36.83-.12-36.83-.26,16.49-.26,36.83-.26S627.5,424.38,627.5,424.52Z" style="fill:#263238"></path><path d="M586.85,380c-.12.08-.62-.51-1.12-1.3s-.8-1.5-.68-1.57.62.5,1.12,1.3S587,379.91,586.85,380Z" style="fill:#263238"></path><path d="M586.88,390.4c-.14,0,0-.92.38-2s.73-1.85.87-1.81a4.2,4.2,0,0,1-.38,2C587.4,389.64,587,390.45,586.88,390.4Z" style="fill:#263238"></path><path d="M590.44,401.35a5.59,5.59,0,0,1-1.22-2,5.31,5.31,0,0,1-.75-2.17c.13-.06.67.81,1.22,1.95A5.33,5.33,0,0,1,590.44,401.35Z" style="fill:#263238"></path><path d="M582.72,410.15c-.1-.09.33-.77,1-1.51s1.25-1.27,1.36-1.18-.33.77-1,1.51S582.83,410.24,582.72,410.15Z" style="fill:#263238"></path><path d="M581.1,394.17c0,.14-.72.13-1.57,0s-1.5-.38-1.48-.52.73-.13,1.57,0S581.13,394,581.1,394.17Z" style="fill:#263238"></path></g><g id="freepik--Tasks--inject-9"><path d="M524.88,311h11.47S511.19,133.87,512.6,83.89L510.82,311Z" style="fill:#e0e0e0"></path><path d="M471.06,30.6S513.93,28,512.78,75.42C509.46,212.72,525.61,316,525.61,316H365V35.51Z" style="fill:#ebebeb"></path><path d="M361,389.81l111.43-.07a24.27,24.27,0,0,0,24.26-24.27l-.06-279.36A24.26,24.26,0,0,0,472.3,61.84l-111.43.07a24.25,24.25,0,0,0-24.26,24.27l.05,279.36A24.27,24.27,0,0,0,361,389.81Z" style="fill:#455a64"></path><path d="M361,71.79l21.61,0,63.09,0h26.51a17,17,0,0,1,17,17l.05,272.67a17,17,0,0,1-17,17l-111.21.07a17,17,0,0,1-17-17L344,88.79A17,17,0,0,1,361,71.79Z" style="fill:#ebebeb"></path><path d="M375,30.57l106.64,1C466,30.84,462.66,37.06,460.09,41c-4.89,7.55-4.4,16.17,1.19,23.23a22.2,22.2,0,0,0,12.66,7.44l-116.85,0c-6.8-6.67-8.22-13.78-7.21-20.18C351.8,39.36,362.63,30.57,375,30.57Z" style="fill:#ebebeb"></path><path d="M493.49,36.17a3.65,3.65,0,0,1-.68-.41,18,18,0,0,0-1.93-1.14A26.41,26.41,0,0,0,483,32.16a27.68,27.68,0,0,0-12.11.65,19.42,19.42,0,0,0-11.17,9.31,20.82,20.82,0,0,0-2.33,14.41,16.6,16.6,0,0,0,2.68,5.88A20.64,20.64,0,0,0,464,66.55a26.41,26.41,0,0,0,7.11,4.16c1.82.7,2.89.93,2.87,1a4.42,4.42,0,0,1-.77-.16A20.18,20.18,0,0,1,471,70.9a25.09,25.09,0,0,1-7.27-4.06,21.05,21.05,0,0,1-4-4.18,16.78,16.78,0,0,1-2.79-6,21.08,21.08,0,0,1,2.34-14.77,19.8,19.8,0,0,1,11.48-9.52,27.71,27.71,0,0,1,12.31-.55A25,25,0,0,1,491,34.44a15.25,15.25,0,0,1,1.91,1.24A5.3,5.3,0,0,1,493.49,36.17Z" style="fill:#263238"></path><path d="M498,38.68a13.76,13.76,0,0,1,2.36,1.64,33.58,33.58,0,0,1,5.59,6,35.07,35.07,0,0,1,3.15,5.06,26.84,26.84,0,0,1,2.41,6.67c.57,2.52.34,5.27.44,8.13s.17,5.92.26,9.11c.22,6.39.51,13.38.85,20.89,0,3.77,0,7.64-.06,11.65s0,8.12,0,12.35c0,16.89.36,35.47,1.09,55,1.41,39,4.29,74.19,6.82,99.62,1.3,12.72,2.45,23,3.28,30.09.42,3.54.75,6.29,1,8.17q.15,1.4.24,2.13c0,.48.06.73.06.73s0-.24-.12-.72-.16-1.2-.29-2.12c-.24-1.89-.6-4.63-1.06-8.16-.9-7.1-2.1-17.37-3.45-30.08-2.62-25.43-5.56-60.64-7-99.64-.73-19.49-1-38.07-1-55,0-4.23,0-8.35,0-12.35s.1-7.89.09-11.63c-.33-7.51-.59-14.51-.79-20.9-.09-3.19-.17-6.23-.22-9.11s.15-5.61-.4-8.08a26.45,26.45,0,0,0-2.34-6.62,35.47,35.47,0,0,0-3.09-5.05,35.06,35.06,0,0,0-5.5-6.07,10.69,10.69,0,0,0-1-.78,8.53,8.53,0,0,0-.72-.53C498.19,38.83,498,38.68,498,38.68Z" style="fill:#263238"></path><path d="M489.2,241.87S487.8,352,479,368.07l-155.16-2L327,352.84,489.25,153.38Z" style="fill:#e0e0e0"></path><path d="M489.2,88.72s-2.78,244.08-18.44,265.43H319.56S354.35,171,344,88.79Z" style="fill:#f5f5f5"></path><path d="M490.51,88.72s-2.78,244.08-18.44,265.43H319.56s24.25-180.38,24.25-261.44" style="fill:#fafafa"></path><path d="M343.81,92.71V94c0,.86,0,2.14,0,3.81s0,3.76-.09,6.22-.05,5.31-.21,8.52c-.43,12.85-1.45,31.53-3.26,54.88-3.73,46.69-10.61,112-20.4,186.76l-.25-.29H472.07l-.2.1a24.48,24.48,0,0,0,2.76-6.45c.64-2.27,1.21-4.55,1.67-6.85,1-4.59,1.69-9.19,2.34-13.75,1.28-9.13,2.21-18.14,3-27,1.59-17.67,2.67-34.62,3.57-50.68,1.75-32.13,2.75-60.69,3.48-84.49s1.13-42.81,1.4-55.89c.12-6.53.22-11.58.29-15,0-1.71.06-3,.07-3.88s0-1.32,0-1.32,0,.44,0,1.32,0,2.17,0,3.88c-.05,3.42-.12,8.47-.2,15-.22,13.08-.58,32.11-1.25,55.9s-1.64,52.37-3.37,84.5c-.88,16.07-1.95,33-3.53,50.7-.81,8.84-1.73,17.85-3,27-.65,4.57-1.37,9.18-2.33,13.78-.47,2.31-1,4.61-1.69,6.89a24.53,24.53,0,0,1-2.83,6.61l-.07.11H319.27l0-.29c9.81-74.72,16.76-140,20.57-186.72,1.86-23.34,2.93-42,3.42-54.85.17-3.21.2-6.06.25-8.52s.09-4.54.13-6.22.06-3,.08-3.81S343.81,92.71,343.81,92.71Z" style="fill:#263238"></path><path d="M489.23,88.41s-.34-17-17-17-115.1,0-115.1,0S344,75.05,344,89.62l102.83,7.9Z" style="fill:#fafafa"></path><path d="M375,30.57h-.28c-.18,0-.46,0-.82,0a21.28,21.28,0,0,0-3.16.27,24,24,0,0,0-10.82,4.6,28.24,28.24,0,0,0-9.78,14.9,19.94,19.94,0,0,0,.45,10.82,21.65,21.65,0,0,0,2.5,5.32,23.56,23.56,0,0,0,3.87,4.74l-.16-.06,29.39,0,61.62.2,18.68.12,5.07.06,1.32,0,.45,0s-.15,0-.45,0l-1.32,0-5.07,0-18.68,0-61.62,0-29.39-.07h-.1l-.06-.06a24.82,24.82,0,0,1-4-4.85,23.1,23.1,0,0,1-2.53-5.44,20.41,20.41,0,0,1-.41-11.06,28.29,28.29,0,0,1,10-15,22.55,22.55,0,0,1,6-3.28,22.2,22.2,0,0,1,5-1.24,18.33,18.33,0,0,1,3.18-.19A7.13,7.13,0,0,1,375,30.57Z" style="fill:#263238"></path><path d="M489.25,187s0,.3,0,.87,0,1.44,0,2.56v9.81c0,8.52-.08,20.86-.24,36.1s-.41,33.39-1.08,53.53c-.34,10.07-.82,20.65-1.84,31.57s-2.43,22.2-4.39,33.67c-.77,4.49-1.59,8.91-2.49,13.05l-.05.2H479c-43.48-.1-82.27-.81-110.19-1.29l-32.95-.66-8.92-.21-2.31-.07-.79,0h.79l2.32,0,8.91.12,33,.5c27.92.38,66.71,1,110.18,1.12l-.25.2c.9-4.11,1.72-8.54,2.49-13,1.95-11.45,3.36-22.72,4.39-33.63s1.52-21.47,1.87-31.54c.7-20.13.95-38.28,1.19-53.52s.31-27.55.41-36.09c0-4.25.07-7.56.09-9.81,0-1.12,0-2,0-2.56S489.25,187,489.25,187Z" style="fill:#263238"></path><path d="M479.12,99.44a98,98,0,0,1-14.27,0,98,98,0,0,1,14.27,0Z" style="fill:#263238"></path><path d="M479.12,95.71a98,98,0,0,1-14.27,0,98,98,0,0,1,14.27,0Z" style="fill:#263238"></path><path d="M479.12,92a98,98,0,0,1-14.27,0,98,98,0,0,1,14.27,0Z" style="fill:#263238"></path><path d="M360.47,101.85l.31,0,.85,0,3.15-.08-.09.09q0-1.05,0-2.28c0-.43,0-.83,0-1.32a1.21,1.21,0,0,1,1.06-1c.51,0,.95,0,1.5,0a1.24,1.24,0,0,1,1,1.22c0,1.07,0,2.18,0,3.33l-.15-.14,4,0-.15.15c0-1.6,0-3.25,0-5,0-.42,0-.84,0-1.26a1.28,1.28,0,0,0-.56-.94l-1.74-1.71L368,91.23l-.82-.8c-.28-.27-.5-.55-.82-.61a1.05,1.05,0,0,0-.91.17c-.24.2-.5.49-.74.73l-1.43,1.44c-.89.93-1.83,1.78-2.51,2.58a2.8,2.8,0,0,0-.2,1.49v1.4c0,.86,0,1.61,0,2.25s0,1.06,0,1.45,0,.51,0,.52a2.76,2.76,0,0,1,0-.48c0-.38,0-.85,0-1.42s0-1.41,0-2.28l0-1.42c0-.26,0-.52,0-.79a1.66,1.66,0,0,1,.22-.83c.74-.9,1.61-1.7,2.52-2.65l1.41-1.45c.26-.26.47-.5.77-.77a1.35,1.35,0,0,1,1.15-.22,2.13,2.13,0,0,1,1,.68l.81.8,1.69,1.65,1.74,1.71a3.48,3.48,0,0,1,.44.48,1.32,1.32,0,0,1,.21.67c0,.42,0,.84,0,1.27,0,1.69,0,3.35,0,5v.15h-.15l-4,0H368v-.14c0-1.16,0-2.27,0-3.34a1,1,0,0,0-.81-1c-.45,0-1,0-1.44,0a1,1,0,0,0-.85.78c0,.4,0,.86,0,1.27v2.37h-.09l-3.2,0-.84,0Z" style="fill:#263238"></path><path d="M403.85,95.31h-1.94V93.89h5.67v1.42h-1.94v4.9h-1.79Z" style="fill:#00416A"></path><path d="M412.17,99h-2.68l-.49,1.22h-1.83L410,93.89h1.76l2.8,6.32h-1.86Zm-.53-1.32-.81-2-.81,2Z" style="fill:#00416A"></path><path d="M414.59,99.65l.59-1.32a4,4,0,0,0,2.08.62c.74,0,1-.21,1-.52,0-1-3.59-.27-3.59-2.61,0-1.13.92-2,2.8-2a4.62,4.62,0,0,1,2.29.55l-.55,1.32a3.76,3.76,0,0,0-1.75-.48c-.75,0-1,.25-1,.56,0,1,3.58.25,3.58,2.58,0,1.1-.92,2-2.8,2A5,5,0,0,1,414.59,99.65Z" style="fill:#00416A"></path><path d="M423.32,97.92l-.67.71v1.58h-1.77V93.89h1.77v2.63l2.45-2.63h2l-2.59,2.8,2.72,3.52h-2.08Z" style="fill:#00416A"></path><path d="M427.09,99.65l.59-1.32a4,4,0,0,0,2.09.62c.74,0,1-.21,1-.52,0-1-3.6-.27-3.6-2.61,0-1.13.92-2,2.8-2a4.66,4.66,0,0,1,2.3.55l-.55,1.32a3.8,3.8,0,0,0-1.76-.48c-.75,0-1,.25-1,.56,0,1,3.59.25,3.59,2.58,0,1.1-.92,2-2.8,2A5.06,5.06,0,0,1,427.09,99.65Z" style="fill:#00416A"></path><path d="M487.18,115.91c0,.14-32.28.26-72.08.26s-72.09-.12-72.09-.26,32.27-.26,72.09-.26S487.18,115.77,487.18,115.91Z" style="fill:#e0e0e0"></path><path d="M488.42,165.71c0,.14-32.27.26-72.08.26s-72.08-.12-72.08-.26,32.26-.26,72.08-.26S488.42,165.56,488.42,165.71Z" style="fill:#e0e0e0"></path><path d="M486.82,213.48c0,.14-33.63.26-75.1.26s-75.11-.12-75.11-.26,33.62-.26,75.11-.26S486.82,213.33,486.82,213.48Z" style="fill:#e0e0e0"></path><path d="M484.8,260.05c0,.15-34.5.26-77,.26s-77-.11-77-.26,34.48-.26,77-.26S484.8,259.91,484.8,260.05Z" style="fill:#e0e0e0"></path><path d="M480,312.44c0,.15-34.63.26-77.33.26s-77.33-.11-77.33-.26,34.62-.26,77.33-.26S480,312.3,480,312.44Z" style="fill:#e0e0e0"></path><path d="M372.55,150.36a1.5,1.5,0,0,1,0-.33c0-.25,0-.55,0-.91,0-.85,0-2-.06-3.41,0-3-.06-7.09-.11-12l.23.22-16.67,0,.26-.26h0v4.47c0,1.46,0,2.9,0,4.3,0,2.8,0,5.44,0,7.86l-.23-.22,12,.11,3.41.06.91,0,.34,0a8.35,8.35,0,0,1-1.16.06l-3.36.05-12.15.12h-.22v-.23c0-2.42,0-5.06,0-7.86,0-1.4,0-2.84,0-4.3v-4.47h0l.26-.26,16.67,0h.22v.23c0,5-.09,9.16-.11,12.15,0,1.4-.05,2.53-.06,3.36S372.56,150.38,372.55,150.36Z" style="fill:#263238"></path><path d="M468.44,140.9c0,.14-19,.26-42.49.26s-42.49-.12-42.49-.26,19-.26,42.49-.26S468.44,140.75,468.44,140.9Z" style="fill:#263238"></path><path d="M427.3,147.5c0,.15-9.81.27-21.92.27s-21.92-.12-21.92-.27,9.81-.26,21.92-.26S427.3,147.36,427.3,147.5Z" style="fill:#263238"></path><path d="M373,124.89c.69.18-.62,7.45-3.55,16-.37,1.07-.74,2.11-1.11,3.11l-.56,1.47-.28.71-.08.18a2.41,2.41,0,0,1-.15.33,3,3,0,0,1-.44.57,2.47,2.47,0,0,1-2.53.53,2.42,2.42,0,0,1-1-.75l-.17-.25-.09-.16-.17-.3c-.42-.78-.78-1.53-1.09-2.21-1.23-2.74-1.71-4.54-1.4-4.69s1.4,1.35,3,3.8l1.32,2,.19.26.08.12,0,0,.08,0c.05,0,.12,0,.11-.07v0h0l.06-.17.24-.72c.16-.49.32-1,.49-1.48l1-3.1C369.86,131.6,372.28,124.71,373,124.89Z" style="fill:#00416A"></path><path d="M370.72,200.57a2.4,2.4,0,0,1,0-.33c0-.25,0-.55,0-.91q0-1.28-.06-3.42c0-3-.07-7.08-.11-12l.22.22-16.66,0,.26-.26h0v4.48c0,1.47,0,2.91,0,4.31,0,2.79,0,5.43,0,7.86l-.22-.22,12,.11,3.41.06.91,0a1.32,1.32,0,0,1,.33,0,9.48,9.48,0,0,1-1.15.05l-3.36.06-12.15.12h-.23v-.23c0-2.43,0-5.07,0-7.86,0-1.4,0-2.84,0-4.31v-4.48h0c-.24.23.31-.32.26-.26l16.66,0H371v.23c-.05,5-.09,9.15-.12,12.15q0,2.1-.06,3.36A7.35,7.35,0,0,1,370.72,200.57Z" style="fill:#263238"></path><path d="M466.62,191.1c0,.15-19,.27-42.49.27s-42.5-.12-42.5-.27,19-.26,42.5-.26S466.62,191,466.62,191.1Z" style="fill:#263238"></path><path d="M368.14,247.29s0-.12,0-.33,0-.55,0-.91c0-.85,0-2-.06-3.41,0-3-.06-7.09-.11-12l.22.22-16.66,0,.26-.26h0v4.46c0,1.47,0,2.91,0,4.31,0,2.8,0,5.44,0,7.86l-.22-.22,12,.11,3.41.06.91,0,.33,0a7.92,7.92,0,0,1-1.15.06l-3.36.05-12.15.12h-.22v-.23c0-2.42,0-5.06,0-7.86,0-1.4,0-2.84,0-4.31v-4.46h0l.26-.26,16.66,0h.23v.23c-.05,5-.09,9.15-.12,12.15,0,1.4,0,2.53-.05,3.36A7.92,7.92,0,0,1,368.14,247.29Z" style="fill:#263238"></path><path d="M464,237.83c0,.14-19,.26-42.49.26s-42.49-.12-42.49-.26,19-.26,42.49-.26S464,237.68,464,237.83Z" style="fill:#263238"></path><path d="M364.11,296.74a1.5,1.5,0,0,1,0-.33c0-.25,0-.55,0-.91,0-.85,0-2-.06-3.41,0-3-.07-7.09-.12-12l.23.22-16.66,0c-.06.06.49-.49.25-.26h0v8.77c0,2.8,0,5.44,0,7.86l-.23-.22,12,.11,3.41.06.92,0,.33,0a7.92,7.92,0,0,1-1.15.06l-3.36.05-12.16.12h-.22v-.23c0-2.42,0-5.06,0-7.86v-4.3c0-.74,0-1.48,0-2.23v-2.24h0c-.23.23.32-.32.27-.26l16.66,0h.23v.23c0,5-.08,9.16-.11,12.15,0,1.4,0,2.53-.06,3.36A9.48,9.48,0,0,1,364.11,296.74Z" style="fill:#263238"></path><path d="M460,287.28c0,.14-19,.26-42.49.26s-42.5-.12-42.5-.26,19-.26,42.5-.26S460,287.13,460,287.28Z" style="fill:#263238"></path><path d="M361.71,343.65s0-.12,0-.33,0-.55,0-.92c0-.84,0-2-.06-3.41,0-3-.06-7.08-.11-12l.22.23-16.66,0,.26-.26h0v4.48c0,1.47,0,2.91,0,4.31,0,2.79,0,5.43,0,7.86l-.23-.23,12,.12,3.41.06.91,0,.33,0s-.38,0-1.15.05l-3.36.06-12.15.11h-.22v-.22c0-2.43,0-5.07,0-7.86,0-1.4,0-2.84,0-4.31V327h0l.26-.26,16.66,0h.23V327c-.05,5-.09,9.16-.11,12.15q0,2.12-.06,3.36A8.35,8.35,0,0,1,361.71,343.65Z" style="fill:#263238"></path><path d="M460.57,333.35c0,.14-19,.26-42.49.26s-42.5-.12-42.5-.26,19-.26,42.5-.26S460.57,333.21,460.57,333.35Z" style="fill:#263238"></path><path d="M445.14,244.24c0,.15-14.95.26-33.4.26s-33.4-.11-33.4-.26,15-.26,33.4-.26S445.14,244.1,445.14,244.24Z" style="fill:#263238"></path><path d="M402.62,295.34c0,.15-6.05.26-13.52.26s-13.52-.11-13.52-.26,6.05-.26,13.52-.26S402.62,295.2,402.62,295.34Z" style="fill:#263238"></path><path d="M470.27,30.76c0,.14-21.28.26-47.52.26s-47.53-.12-47.53-.26,21.28-.26,47.53-.26S470.27,30.62,470.27,30.76Z" style="fill:#263238"></path></g><g id="freepik--Floor--inject-9"><path d="M683.17,460.65c0,.14-138,.26-308.16.26s-308.18-.12-308.18-.26,138-.26,308.18-.26S683.17,460.51,683.17,460.65Z" style="fill:#263238"></path></g><g id="freepik--speech-bubble--inject-9"><path d="M243.07,135.86l6.28-11.08a29.7,29.7,0,1,1,7.11,7.91h0Z" style="fill:#fff"></path><path d="M243.07,135.86l13.43-3,.18,0-.11-.15h0l-.17.16a29.66,29.66,0,0,0,14.24,6,26.87,26.87,0,0,0,4.7.24c.81,0,1.63-.06,2.47-.13l2.5-.38a29.76,29.76,0,0,0,23.24-36.6,29.15,29.15,0,0,0-6.37-12.22,29.84,29.84,0,0,0-11.44-8.17,30.37,30.37,0,0,0-13.32-2.05,29.24,29.24,0,0,0-12.22,3.62,30.15,30.15,0,0,0-14.09,17.35,32,32,0,0,0-1.29,9.66,29.54,29.54,0,0,0,4.45,14.72v-.12l-6.18,11.14,6.38-11,0-.06,0-.06a29.51,29.51,0,0,1-4.31-14.61,31.87,31.87,0,0,1,1.32-9.54A29.78,29.78,0,0,1,260.4,83.49a28.88,28.88,0,0,1,12-3.53,29.84,29.84,0,0,1,13.11,2,29.4,29.4,0,0,1,11.26,8,28.74,28.74,0,0,1,6.27,12,30,30,0,0,1,.36,13,29.55,29.55,0,0,1-13.35,19.2,29.73,29.73,0,0,1-9.86,3.91l-2.47.38c-.82.07-1.64.09-2.44.14a25.29,25.29,0,0,1-4.64-.22,29.46,29.46,0,0,1-14.14-5.86l-.74-.57.57.73v0l.07-.19Z" style="fill:#263238"></path><polygon points="259.75 111.01 263.9 106.86 271.9 113.97 287.61 98.86 291.46 103 271.31 121.97 259.75 111.01" style="fill:#00416A"></polygon></g></svg>
